<?xml version="1.0" encoding="utf-8"?>
<!-- Generator: Adobe Illustrator 16.0.0, SVG Export Plug-In . SVG Version: 6.00 Build 0)  -->
<!DOCTYPE svg PUBLIC "-//W3C//DTD SVG 1.1//EN" "http://www.w3.org/Graphics/SVG/1.1/DTD/svg11.dtd">
<svg version="1.1" id="Layer_1" xmlns="http://www.w3.org/2000/svg" xmlns:xlink="http://www.w3.org/1999/xlink" x="0px" y="0px"
	 width="595.28px" height="841.89px" viewBox="0 0 595.28 841.89" enable-background="new 0 0 595.28 841.89" xml:space="preserve">
<polygon fill="#E0E0E0" stroke="#E0E0E0" stroke-width="5" stroke-linecap="round" stroke-linejoin="round" stroke-miterlimit="30" points="
	268.052,430.861 276.564,435.775 285.077,430.861 293.589,435.775 302.102,430.861 310.615,435.774 327.641,425.947 
	327.641,416.118 310.615,406.288 302.103,411.203 293.589,406.287 285.077,411.203 276.564,406.288 268.052,411.203 "/>
<g>
	<g>
		<g>
			
				<line fill="none" stroke="#515151" stroke-linecap="round" stroke-linejoin="round" x1="285.078" y1="430.861" x2="285.944" y2="431.361"/>
			
				<line fill="none" stroke="#515151" stroke-linecap="round" stroke-linejoin="round" stroke-dasharray="1.5659,1.5659" x1="287.3" y1="432.145" x2="292.046" y2="434.885"/>
			
				<line fill="none" stroke="#515151" stroke-linecap="round" stroke-linejoin="round" x1="292.724" y1="435.276" x2="293.59" y2="435.776"/>
		</g>
	</g>
	<g>
		<g>
			
				<line fill="none" stroke="#515151" stroke-linecap="round" stroke-linejoin="round" x1="327.641" y1="425.947" x2="327.641" y2="424.947"/>
			
				<line fill="none" stroke="#515151" stroke-linecap="round" stroke-linejoin="round" stroke-dasharray="1.5658,1.5658" x1="327.641" y1="423.381" x2="327.641" y2="417.901"/>
			<polyline fill="none" stroke="#515151" stroke-linecap="round" stroke-linejoin="round" points="327.641,417.118 
				327.641,416.118 326.775,415.618 			"/>
			
				<line fill="none" stroke="#515151" stroke-linecap="round" stroke-linejoin="round" stroke-dasharray="1.9622,1.9622" x1="325.076" y1="414.637" x2="312.332" y2="407.279"/>
			
				<line fill="none" stroke="#515151" stroke-linecap="round" stroke-linejoin="round" x1="311.482" y1="406.788" x2="310.615" y2="406.288"/>
		</g>
	</g>
	<g>
		<g>
			
				<line fill="none" stroke="#515151" stroke-linecap="round" stroke-linejoin="round" x1="310.615" y1="416.118" x2="311.48" y2="416.618"/>
			
				<line fill="none" stroke="#515151" stroke-linecap="round" stroke-linejoin="round" stroke-dasharray="1.5658,1.5658" x1="312.837" y1="417.401" x2="317.584" y2="420.14"/>
			
				<line fill="none" stroke="#515151" stroke-linecap="round" stroke-linejoin="round" x1="318.262" y1="420.531" x2="319.128" y2="421.031"/>
		</g>
	</g>
	
		<path fill="#FFFFFF" stroke="#000000" stroke-width="1.5" stroke-linecap="round" stroke-linejoin="round" stroke-miterlimit="30" d="
		M285.078,411.203l-8.512-4.915l-8.512,4.915l0,19.658l8.513,4.915l17.025-9.829v-9.829L285.078,411.203z M276.564,425.947
		l0.001-9.829l8.512,4.914L276.564,425.947z"/>
	
		<polygon fill="#FFFFFF" stroke="#000000" stroke-width="1.5" stroke-linecap="round" stroke-linejoin="round" stroke-miterlimit="30" points="
		293.59,416.118 285.078,411.203 293.59,406.288 310.615,416.118 302.104,421.032 302.104,430.861 293.59,435.776 	"/>
	
		<polygon fill="#FFFFFF" stroke="#000000" stroke-width="1.5" stroke-linecap="round" stroke-linejoin="round" stroke-miterlimit="30" points="
		310.615,406.288 302.104,411.202 310.615,416.118 	"/>
	
		<polygon fill="#FFFFFF" stroke="#000000" stroke-width="1.5" stroke-linecap="round" stroke-linejoin="round" stroke-miterlimit="30" points="
		310.615,416.118 302.104,421.032 302.104,430.861 310.615,435.775 327.641,425.947 319.128,421.031 310.615,425.947 	"/>
</g>
</svg>
