<?xml version="1.0" encoding="UTF-8"?>
<svg viewBox="6.811 6.891 10.218 10.218" xmlns="http://www.w3.org/2000/svg" width="512" height="512"><style>#frame-group{--stroke-w:0.75}#slot-ins-front,#slot-ins-front-outline{--stroke-w:0.75}#slot-ins-back,#slot-ins-back-outline{--stroke-w:0.75}.arc{fill:rgba(28,28,23,1);stroke:#f5f4ec;stroke-width:var(--stroke-w);stroke-linecap:round;stroke-linejoin:round}.edge{fill:none;stroke:#f5f4ec;stroke-width:var(--stroke-w);stroke-linecap:round;stroke-linejoin:round}.fill{fill:rgba(28,28,23,1);stroke:none}.dot{fill:#f5f4ec;stroke:none}.ins{fill:none;stroke:#ffd400;stroke-width:calc(var(--stroke-w)*0.7);stroke-linecap:round;stroke-linejoin:round}.ins-dot{fill:#ffd400;stroke:none}.ins-solid{fill:#ffd400}.ins-text{fill:#ffd400;font-family:'Inter',-apple-system,sans-serif;font-weight:800}#slot-ins-back .ins{stroke:#8e8c82}#slot-ins-back .ins-dot,#slot-ins-back .ins-text,#slot-ins-back .ins-solid{fill:#8e8c82}</style>
      <g id="frame-group">
        <g id="slot-full"/>
        <g id="slot-tl"/>
        <g id="slot-tr"/>
        <g id="slot-bl"/>
        <g id="slot-br"/>
      </g>
      <g id="slot-ins-wrap" transform="translate(0,0) translate(12,12) scale(0.85) translate(-12,-12)">
        <g id="slot-ins-back-outline" transform="translate(0,0) translate(12,12) scale(1) translate(-12,-12)"/>
        <g id="slot-ins-back" transform="translate(0,0) translate(12,12) scale(1) translate(-12,-12)"/>
        <g id="slot-ins-front-outline" transform="translate(0,0) translate(12,12) scale(1) translate(-12,-12)"/>
        <g id="slot-ins-front" transform="translate(0,0) translate(12,12) scale(1) translate(-12,-12)"><g xmlns="http://www.w3.org/2000/svg" transform="translate(6,6) scale(0.5)">
    <g transform="translate(0,6.062) scale(0.40276) translate(-268.052,-406.287)">
      <!-- fill eroded by half line-width (w/2) toward fill side; gap = ver1.5 black seam -->
      <!-- D + play face (hole grown) -->
      <path class="ins-dot" fill-rule="evenodd" d="M284.609,412.015 276.566,407.371 268.991,411.744 268.991,430.320 276.567,434.693 292.654,425.406 292.654,416.659 Z M275.626,427.571 275.628,414.494 286.952,421.032 Z"/>
      <!-- top face -->
      <polygon class="ins-dot" points="294.527,415.577 286.953,411.203 293.590,407.371 308.740,416.118 301.166,420.491 301.166,430.320 294.527,434.152"/>
      <!-- small top triangle -->
      <polygon class="ins-dot" points="309.678,407.912 303.979,411.202 309.678,414.494"/>
      <!-- right face -->
      <polygon class="ins-dot" points="309.678,417.742 303.041,421.573 303.041,430.320 310.615,434.692 325.766,425.947 319.128,422.114 309.678,427.571"/>
    </g>
  </g></g>
      </g>
    </svg>